<svg width="159" height="177" viewBox="0 0 159 177" fill="none" xmlns="http://www.w3.org/2000/svg">
<path fill-rule="evenodd" clip-rule="evenodd" d="M79.4911 158C71.958 157.999 64.4888 156.764 57.2903 154.329C21.1233 142.09 1.65615 102.708 13.8942 66.5401C23.4208 38.3869 49.7766 19.4706 79.4775 19.4706C87.0102 19.4706 94.4791 20.7063 101.679 23.1427C119.199 29.071 133.362 41.4674 141.559 58.0483C149.755 74.6299 151.004 93.4103 145.076 110.931C135.549 139.085 109.195 158 79.4962 158H79.4911Z" fill="#F0F0F0"/>
<path fill-rule="evenodd" clip-rule="evenodd" d="M77.1844 14.8529C46.4992 14.8529 19.2702 34.399 9.4289 63.4913C3.3039 81.5959 4.59437 101.003 13.0624 118.137C21.5302 135.271 36.1619 148.081 54.262 154.207C61.6987 156.724 69.4158 158 77.1982 158C107.883 158 135.112 138.454 144.954 109.362C151.078 91.257 149.788 71.8506 141.32 54.7167C132.852 37.583 118.221 24.7726 100.121 18.6462C92.6839 16.1294 84.9668 14.8529 77.1844 14.8529ZM77.1844 19.6246C84.2789 19.6246 91.4987 20.7655 98.5916 23.1661C133.52 34.9885 152.254 72.8949 140.435 107.832C131.016 135.676 105.04 153.229 77.1982 153.229C70.104 153.229 62.8836 152.088 55.791 149.687C20.8623 137.865 2.12835 99.9585 13.9473 65.0205C23.3666 37.1774 49.3425 19.6246 77.1844 19.6246Z" fill="black"/>
<path d="M9.4289 63.4913L9.90252 63.6515L9.90253 63.6515L9.4289 63.4913ZM13.0624 118.137L13.5107 117.915H13.5107L13.0624 118.137ZM54.262 154.207L54.4223 153.733H54.4223L54.262 154.207ZM144.954 109.362L145.427 109.522L144.954 109.362ZM141.32 54.7167L141.768 54.4951V54.4951L141.32 54.7167ZM100.121 18.6462L100.281 18.1726L100.281 18.1726L100.121 18.6462ZM98.5916 23.1661L98.7519 22.6925L98.7519 22.6925L98.5916 23.1661ZM140.435 107.832L139.961 107.672L140.435 107.832ZM55.791 149.687L55.9513 149.213H55.9513L55.791 149.687ZM13.9473 65.0205L13.4737 64.8603L13.4737 64.8603L13.9473 65.0205ZM77.1844 14.3529C46.2845 14.3529 18.8651 34.036 8.95526 63.3311L9.90253 63.6515C19.6752 34.7621 46.7138 15.3529 77.1844 15.3529V14.3529ZM8.95527 63.3311C2.78778 81.5613 4.08738 101.105 12.6142 118.358L13.5107 117.915C5.10136 100.9 3.82001 81.6306 9.90252 63.6515L8.95527 63.3311ZM12.6142 118.358C21.1407 135.611 35.8759 148.512 54.1017 154.68L54.4223 153.733C36.4478 147.65 21.9197 134.93 13.5107 117.915L12.6142 118.358ZM54.1017 154.68C61.5896 157.215 69.3608 158.5 77.1982 158.5V157.5C69.4708 157.5 61.8078 156.233 54.4223 153.733L54.1017 154.68ZM77.1982 158.5C108.098 158.5 135.517 138.817 145.427 109.522L144.48 109.202C134.707 138.091 107.669 157.5 77.1982 157.5V158.5ZM145.427 109.522C151.594 91.2917 150.295 71.748 141.768 54.4951L140.872 54.9382C149.281 71.9533 150.562 91.2224 144.48 109.202L145.427 109.522ZM141.768 54.4951C133.242 37.2426 118.507 24.3415 100.281 18.1726L99.9603 19.1198C117.935 25.2037 132.463 37.9234 140.872 54.9382L141.768 54.4951ZM100.281 18.1726C92.793 15.6384 85.0218 14.3529 77.1844 14.3529V15.3529C84.9118 15.3529 92.5748 16.6203 99.9603 19.1198L100.281 18.1726ZM77.1844 20.1246C84.2251 20.1246 91.3907 21.2568 98.4313 23.6397L98.7519 22.6925C91.6067 20.2742 84.3327 19.1246 77.1844 19.1246V20.1246ZM98.4313 23.6397C133.098 35.3735 151.692 72.9961 139.961 107.672L140.909 107.993C152.816 72.7937 133.942 34.6034 98.7519 22.6925L98.4313 23.6397ZM139.961 107.672C130.613 135.306 104.832 152.729 77.1982 152.729V153.729C105.248 153.729 131.419 136.045 140.909 107.993L139.961 107.672ZM77.1982 152.729C70.1578 152.729 62.9916 151.596 55.9513 149.213L55.6307 150.16C62.7756 152.579 70.0502 153.729 77.1982 153.729V152.729ZM55.9513 149.213C21.2842 137.48 2.69043 99.8573 14.421 65.1808L13.4737 64.8603C1.56627 100.06 20.4403 138.25 55.6307 150.16L55.9513 149.213ZM14.421 65.1808C23.7695 37.5468 49.5504 20.1246 77.1844 20.1246V19.1246C49.1345 19.1246 22.9637 36.8081 13.4737 64.8603L14.421 65.1808Z" fill="black"/>
<path fill-rule="evenodd" clip-rule="evenodd" d="M51.7941 102.588L77.1913 56.4118L102.588 102.588H51.7941Z" fill="#C7C9C8"/>
<path fill-rule="evenodd" clip-rule="evenodd" d="M77.1912 51.7941L74.0103 57.177L50.3573 97.2054L47.1765 102.588H53.5381H100.845H107.206L104.025 97.2054L80.372 57.177L77.1912 51.7941ZM77.1912 58.9713L100.845 98.9994H53.5382L77.1912 58.9713Z" fill="black"/>
<path d="M77.1912 51.7941L77.6216 51.5398L77.1912 50.8113L76.7607 51.5398L77.1912 51.7941ZM74.0103 57.177L73.5799 56.9226L73.5799 56.9226L74.0103 57.177ZM50.3573 97.2054L50.7878 97.4598L50.7878 97.4598L50.3573 97.2054ZM47.1765 102.588L46.746 102.334L46.3002 103.088H47.1765V102.588ZM107.206 102.588V103.088H108.082L107.636 102.334L107.206 102.588ZM104.025 97.2054L104.456 96.9511L104.456 96.951L104.025 97.2054ZM80.372 57.177L80.8025 56.9226V56.9226L80.372 57.177ZM77.1912 58.9713L77.6217 58.7169L77.1912 57.9885L76.7607 58.7169L77.1912 58.9713ZM100.845 98.9994V99.4994H101.721L101.275 98.745L100.845 98.9994ZM53.5382 98.9994L53.1077 98.745L52.6619 99.4994H53.5382V98.9994ZM76.7607 51.5398L73.5799 56.9226L74.4408 57.4313L77.6216 52.0485L76.7607 51.5398ZM73.5799 56.9226L49.9268 96.951L50.7878 97.4598L74.4408 57.4313L73.5799 56.9226ZM49.9268 96.951L46.746 102.334L47.6069 102.843L50.7878 97.4598L49.9268 96.951ZM47.1765 103.088H53.5381V102.088H47.1765V103.088ZM53.5381 103.088H100.845V102.088H53.5381V103.088ZM100.845 103.088H107.206V102.088H100.845V103.088ZM107.636 102.334L104.456 96.9511L103.595 97.4598L106.775 102.843L107.636 102.334ZM104.456 96.951L80.8025 56.9226L79.9415 57.4313L103.595 97.4598L104.456 96.951ZM80.8025 56.9226L77.6216 51.5398L76.7607 52.0485L79.9415 57.4313L80.8025 56.9226ZM76.7607 59.2257L100.414 99.2538L101.275 98.745L77.6217 58.7169L76.7607 59.2257ZM100.845 98.4994H53.5382V99.4994H100.845V98.4994ZM53.9686 99.2538L77.6217 59.2256L76.7607 58.7169L53.1077 98.745L53.9686 99.2538Z" fill="black"/>
<path fill-rule="evenodd" clip-rule="evenodd" d="M61.8863 22.3407C59.026 13.888 63.5599 4.71699 72.0125 1.85695C80.465 -1.00342 89.6357 3.5301 92.4961 11.9828C95.3564 20.4358 90.8225 29.6065 82.3702 32.4666C73.9173 35.327 64.7466 30.7934 61.8863 22.3407Z" fill="#FF7F7F"/>
<path fill-rule="evenodd" clip-rule="evenodd" d="M79.508 5.92274C78.0468 5.92274 76.5801 6.16186 75.1551 6.64408C68.0806 9.03764 64.2727 16.7386 66.6666 23.8107C67.8259 27.2372 70.2507 30.0067 73.4941 31.6097C76.7375 33.212 80.4102 33.4564 83.8372 32.2973C90.9118 29.9047 94.7193 22.2034 92.3254 15.1307C91.1655 11.7044 88.7413 8.93497 85.4979 7.33165C83.6031 6.39536 81.5619 5.92274 79.508 5.92274ZM79.4799 37.9412C76.6798 37.9418 73.8967 37.2967 71.3135 36.0206C66.8915 33.835 63.5861 30.0587 62.0051 25.3878C58.7418 15.7457 63.9328 5.24643 73.5775 1.98315C78.2488 0.402683 83.2565 0.736529 87.6791 2.9211C92.1007 5.10667 95.4058 8.88264 96.9872 13.5535C98.5675 18.2244 98.2348 23.2311 96.0494 27.6516C93.8634 32.0727 90.0867 35.3774 85.415 36.9582C83.4727 37.6153 81.4716 37.9412 79.4799 37.9412Z" fill="black"/>
<path d="M75.1551 6.64408L75.3154 7.11771L75.3154 7.1177L75.1551 6.64408ZM66.6666 23.8107L67.1403 23.6504L67.1402 23.6504L66.6666 23.8107ZM73.4941 31.6097L73.2726 32.0579L73.2726 32.058L73.4941 31.6097ZM83.8372 32.2973L83.6771 31.8236L83.677 31.8236L83.8372 32.2973ZM92.3254 15.1307L92.799 14.9704L92.799 14.9703L92.3254 15.1307ZM85.4979 7.33165L85.7195 6.88342L85.7194 6.88339L85.4979 7.33165ZM79.4799 37.9412V37.4412H79.4797L79.4799 37.9412ZM71.3135 36.0206L71.0919 36.4688L71.092 36.4689L71.3135 36.0206ZM62.0051 25.3878L61.5314 25.5481L61.5315 25.5481L62.0051 25.3878ZM73.5775 1.98315L73.4173 1.50953L73.4173 1.50953L73.5775 1.98315ZM87.6791 2.9211L87.9007 2.47287L87.9006 2.47281L87.6791 2.9211ZM96.9872 13.5535L97.4608 13.3933L97.4608 13.3932L96.9872 13.5535ZM96.0494 27.6516L96.4976 27.8732L96.4976 27.8731L96.0494 27.6516ZM85.415 36.9582L85.5753 37.4318L85.5753 37.4318L85.415 36.9582ZM79.508 5.42274C77.9921 5.42274 76.4712 5.67086 74.9949 6.17047L75.3154 7.1177C76.689 6.65286 78.1016 6.42274 79.508 6.42274V5.42274ZM74.9949 6.17046C67.6589 8.65248 63.7105 16.6372 66.193 23.971L67.1402 23.6504C64.8349 16.84 68.5023 9.4228 75.3154 7.11771L74.9949 6.17046ZM66.193 23.9709C67.3948 27.5232 69.9103 30.3962 73.2726 32.0579L73.7156 31.1614C70.5911 29.6172 68.257 26.9513 67.1403 23.6504L66.193 23.9709ZM73.2726 32.058C76.6348 33.719 80.4448 33.9726 83.9974 32.7709L83.677 31.8236C80.3756 32.9403 76.8401 32.705 73.7156 31.1614L73.2726 32.058ZM83.9974 32.7709C91.3336 30.2899 95.2815 22.3047 92.799 14.9704L91.8518 15.291C94.1572 22.102 90.49 29.5195 83.6771 31.8236L83.9974 32.7709ZM92.799 14.9703C91.5966 11.4185 89.0818 8.5455 85.7195 6.88342L85.2764 7.77987C88.4009 9.32444 90.7344 11.9903 91.8518 15.291L92.799 14.9703ZM85.7194 6.88339C83.7561 5.91326 81.6391 5.42274 79.508 5.42274V6.42274C81.4846 6.42274 83.4501 6.87745 85.2764 7.77991L85.7194 6.88339ZM79.4797 37.4412C76.7571 37.4418 74.0498 36.8146 71.5349 35.5723L71.092 36.4689C73.7436 37.7787 76.6025 38.4419 79.48 38.4412L79.4797 37.4412ZM71.535 35.5723C67.232 33.4455 64.0172 29.7728 62.4787 25.2275L61.5315 25.5481C63.155 30.3446 66.5511 34.2245 71.0919 36.4688L71.535 35.5723ZM62.4787 25.2275C59.3039 15.8471 64.3545 5.63158 73.7378 2.45678L73.4173 1.50953C63.511 4.86129 58.1796 15.6443 61.5314 25.5481L62.4787 25.2275ZM73.7378 2.45678C78.2834 0.91883 83.1538 1.24347 87.4577 3.36939L87.9006 2.47281C83.3593 0.229592 78.2143 -0.113464 73.4173 1.50953L73.7378 2.45678ZM87.4576 3.36933C91.7603 5.49614 94.9748 9.16855 96.5136 13.7138L97.4608 13.3932C95.8369 8.59673 92.4411 4.7172 87.9007 2.47287L87.4576 3.36933ZM96.5136 13.7138C98.0514 18.259 97.7278 23.1284 95.6012 27.43L96.4976 27.8731C98.7418 23.3338 99.0836 18.1897 97.4608 13.3933L96.5136 13.7138ZM95.6012 27.4299C93.4739 31.7322 89.8008 34.9463 85.2548 36.4846L85.5753 37.4318C90.3725 35.8085 94.2528 32.4132 96.4976 27.8732L95.6012 27.4299ZM85.2548 36.4846C83.3639 37.1243 81.4169 37.4412 79.4799 37.4412V38.4412C81.5264 38.4412 83.5816 38.1063 85.5753 37.4318L85.2548 36.4846Z" fill="black"/>
<path fill-rule="evenodd" clip-rule="evenodd" d="M126.533 54.6641C123.673 46.2115 128.206 37.0405 136.659 34.1805C145.112 31.3201 154.283 35.8536 157.143 44.3066C160.003 52.7592 155.47 61.9299 147.017 64.7903C138.565 67.6503 129.393 63.1168 126.533 54.6641Z" fill="#FFBF7F"/>
<path fill-rule="evenodd" clip-rule="evenodd" d="M139.522 38.2465C138.086 38.2465 136.626 38.4765 135.192 38.9622C128.118 41.3558 124.31 49.0604 126.704 56.1361C129.098 63.2112 136.802 67.0225 143.874 64.6263C150.949 62.2317 154.757 54.5275 152.363 47.4518C150.454 41.8107 145.171 38.2465 139.522 38.2465ZM139.548 70.2647C131.847 70.2647 124.645 65.405 122.042 57.714C120.462 53.0411 120.795 48.0323 122.98 43.6099C125.166 39.1869 128.942 35.8808 133.614 34.2993C143.259 31.0353 153.761 36.2277 157.025 45.874C160.288 55.5208 155.096 66.0246 145.452 69.2889C143.497 69.9506 141.506 70.2647 139.548 70.2647Z" fill="black"/>
<path d="M135.192 38.9622L135.352 39.4359L135.352 39.4358L135.192 38.9622ZM126.704 56.1361L126.23 56.2964L126.23 56.2964L126.704 56.1361ZM143.874 64.6263L143.714 64.1527L143.714 64.1528L143.874 64.6263ZM152.363 47.4518L152.837 47.2915L152.837 47.2915L152.363 47.4518ZM122.042 57.714L121.569 57.8742L121.569 57.8742L122.042 57.714ZM122.98 43.6099L122.532 43.3884L122.532 43.3884L122.98 43.6099ZM133.614 34.2993L133.454 33.8257L133.454 33.8257L133.614 34.2993ZM157.025 45.874L157.498 45.7137L157.498 45.7137L157.025 45.874ZM145.452 69.2889L145.291 68.8153L145.291 68.8153L145.452 69.2889ZM139.522 37.7465C138.032 37.7465 136.519 37.9851 135.032 38.4886L135.352 39.4358C136.734 38.9679 138.139 38.7465 139.522 38.7465V37.7465ZM135.032 38.4886C127.696 40.9707 123.748 48.9592 126.23 56.2964L127.178 55.9759C124.872 49.1616 128.54 41.7409 135.352 39.4359L135.032 38.4886ZM126.23 56.2964C128.713 63.6328 136.701 67.5848 144.035 65.0999L143.714 64.1528C136.904 66.4602 129.483 62.7896 127.178 55.9759L126.23 56.2964ZM144.035 65.0999C151.37 62.6168 155.319 54.6288 152.837 47.2915L151.889 47.612C154.195 54.4262 150.527 61.8467 143.714 64.1527L144.035 65.0999ZM152.837 47.2915C150.857 41.4409 145.378 37.7465 139.522 37.7465V38.7465C144.963 38.7465 150.051 42.1806 151.889 47.612L152.837 47.2915ZM139.548 69.7647C132.055 69.7647 125.047 65.0351 122.516 57.5537L121.569 57.8742C124.242 65.7748 131.64 70.7647 139.548 70.7647V69.7647ZM122.516 57.5538C120.978 53.0065 121.302 48.1349 123.429 43.8315L122.532 43.3884C120.288 47.9296 119.946 53.0758 121.569 57.8742L122.516 57.5538ZM123.429 43.8315C125.556 39.5273 129.228 36.3119 133.775 34.7729L133.454 33.8257C128.656 35.4497 124.777 38.8465 122.532 43.3884L123.429 43.8315ZM133.775 34.773C143.157 31.5975 153.376 36.6495 156.551 46.0342L157.498 45.7137C154.146 35.8059 143.36 30.4732 133.454 33.8257L133.775 34.773ZM156.551 46.0342C159.725 55.4196 154.674 65.6395 145.291 68.8153L145.612 69.7625C155.518 66.4096 160.85 55.6221 157.498 45.7137L156.551 46.0342ZM145.291 68.8153C143.389 69.4592 141.453 69.7647 139.548 69.7647V70.7647C141.56 70.7647 143.605 70.4419 145.612 69.7625L145.291 68.8153Z" fill="black"/>
<path fill-rule="evenodd" clip-rule="evenodd" d="M1.85693 133.164C-1.00341 124.712 3.53015 115.541 11.9831 112.68C20.4357 109.82 29.6064 114.354 32.4668 122.806C35.3268 131.259 30.7932 140.43 22.3406 143.29C13.888 146.151 4.71693 141.617 1.85693 133.164Z" fill="#407FFF"/>
<path fill-rule="evenodd" clip-rule="evenodd" d="M19.4786 112.128C18.0178 112.128 16.5506 112.368 15.1257 112.85C8.05149 115.243 4.24325 122.944 6.63718 130.016C7.79679 133.443 10.2213 136.213 13.4647 137.816C16.708 139.418 20.3808 139.663 23.8082 138.503C30.8824 136.11 34.6899 128.409 32.296 121.336C31.1364 117.91 28.7119 115.14 25.4685 113.537C23.5737 112.601 21.5324 112.128 19.4786 112.128ZM19.4505 144.147C16.6504 144.148 13.8673 143.503 11.2841 142.226C6.86214 140.041 3.55699 136.265 1.97564 131.594C-1.28767 121.951 3.90334 111.452 13.5482 108.189C18.2195 106.609 23.2275 106.942 27.6497 109.127C32.0713 111.312 35.3765 115.088 36.9575 119.759C38.5382 124.43 38.2054 129.437 36.0201 133.857C33.834 138.279 30.0576 141.583 25.3857 143.164C23.4433 143.821 21.4426 144.147 19.4505 144.147Z" fill="black"/>
<path d="M15.1257 112.85L15.2859 113.323L15.286 113.323L15.1257 112.85ZM6.63718 130.016L7.11079 129.856L7.11079 129.856L6.63718 130.016ZM13.4647 137.816L13.2431 138.264L13.2432 138.264L13.4647 137.816ZM23.8082 138.503L23.6479 138.029L23.6479 138.029L23.8082 138.503ZM32.296 121.336L31.8224 121.497L31.8224 121.497L32.296 121.336ZM25.4685 113.537L25.6901 113.089L25.69 113.089L25.4685 113.537ZM19.4505 144.147V143.647H19.4503L19.4505 144.147ZM11.2841 142.226L11.0625 142.675L11.0626 142.675L11.2841 142.226ZM1.97564 131.594L1.50203 131.754L1.50205 131.754L1.97564 131.594ZM13.5482 108.189L13.3879 107.715L13.3879 107.715L13.5482 108.189ZM27.6497 109.127L27.8713 108.679L27.8712 108.679L27.6497 109.127ZM36.9575 119.759L37.4311 119.599L37.4311 119.599L36.9575 119.759ZM36.0201 133.857L36.4683 134.079L36.4683 134.079L36.0201 133.857ZM25.3857 143.164L25.2254 142.69H25.2254L25.3857 143.164ZM19.4786 111.628C17.963 111.628 16.4417 111.877 14.9654 112.376L15.286 113.323C16.6595 112.859 18.0725 112.628 19.4786 112.628V111.628ZM14.9655 112.376C7.62977 114.858 3.68106 122.843 6.16358 130.177L7.11079 129.856C4.80544 123.045 8.47322 115.628 15.2859 113.323L14.9655 112.376ZM6.16357 130.177C7.36569 133.729 9.88085 136.602 13.2431 138.264L13.6862 137.367C10.5617 135.823 8.22789 133.157 7.11079 129.856L6.16357 130.177ZM13.2432 138.264C16.6053 139.925 20.4154 140.179 23.9684 138.977L23.6479 138.029C20.3462 139.147 16.8108 138.911 13.6861 137.367L13.2432 138.264ZM23.9684 138.977C31.3041 136.495 35.2521 128.511 32.7696 121.176L31.8224 121.497C34.1278 128.308 30.4606 135.725 23.6479 138.029L23.9684 138.977ZM32.7696 121.176C31.5675 117.624 29.0523 114.751 25.6901 113.089L25.247 113.986C28.3715 115.53 30.7053 118.196 31.8224 121.497L32.7696 121.176ZM25.69 113.089C23.7267 112.119 21.6097 111.628 19.4786 111.628V112.628C21.4552 112.628 23.4207 113.083 25.247 113.986L25.69 113.089ZM19.4503 143.647C16.7277 143.648 14.0204 143.02 11.5055 141.778L11.0626 142.675C13.7142 143.985 16.5731 144.648 19.4506 144.647L19.4503 143.647ZM11.5056 141.778C7.20257 139.651 3.98807 135.979 2.44924 131.433L1.50205 131.754C3.12591 136.55 6.52171 140.43 11.0625 142.675L11.5056 141.778ZM2.44925 131.433C-0.725499 122.053 4.3251 111.837 13.7084 108.663L13.3879 107.715C3.48158 111.067 -1.84984 121.85 1.50203 131.754L2.44925 131.433ZM13.7084 108.663C18.254 107.125 23.1248 107.449 27.4283 109.575L27.8712 108.679C23.3302 106.435 18.1849 106.093 13.3879 107.715L13.7084 108.663ZM27.4282 109.575C31.7309 111.702 34.9454 115.374 36.4839 119.92L37.4311 119.599C35.8076 114.803 32.4118 110.923 27.8713 108.679L27.4282 109.575ZM36.4839 119.92C38.0221 124.465 37.6984 129.334 35.5718 133.636L36.4683 134.079C38.7124 129.54 39.0543 124.395 37.4311 119.599L36.4839 119.92ZM35.5718 133.636C33.4446 137.938 29.7718 141.152 25.2254 142.69L25.5459 143.637C30.3435 142.014 34.2234 138.619 36.4683 134.079L35.5718 133.636ZM25.2254 142.69C23.3345 143.33 21.3878 143.647 19.4505 143.647V144.647C21.4974 144.647 23.5522 144.312 25.5459 143.637L25.2254 142.69Z" fill="black"/>
<path fill-rule="evenodd" clip-rule="evenodd" d="M61.8863 165.488C59.026 157.035 63.5599 147.864 72.0125 145.004C80.465 142.144 89.6357 146.678 92.4961 155.13C95.3564 163.583 90.8225 172.754 82.3702 175.614C73.9173 178.474 64.7466 173.94 61.8863 165.488Z" fill="#7FFF7F"/>
<path fill-rule="evenodd" clip-rule="evenodd" d="M79.4891 144.459C78.0522 144.459 76.5928 144.688 75.1579 145.174C68.0822 147.567 64.2735 155.268 66.6679 162.34C67.8274 165.767 70.2524 168.536 73.4965 170.139C76.7409 171.741 80.4145 171.986 83.8422 170.827C90.9176 168.434 94.7263 160.732 92.3322 153.66C90.4227 148.021 85.1389 144.459 79.4891 144.459ZM79.4835 176.471C76.6832 176.471 73.8991 175.826 71.3157 174.55C66.8928 172.364 63.5866 168.588 62.0053 163.917C58.7413 154.276 63.9334 143.776 73.5802 140.513C78.2532 138.932 83.2626 139.265 87.6842 141.451C92.1074 143.636 95.4132 147.412 96.9949 152.083C100.259 161.725 95.0665 172.225 85.4203 175.487C83.4775 176.144 81.476 176.471 79.4835 176.471Z" fill="black"/>
<path d="M75.1579 145.174L74.9977 144.7L74.9977 144.7L75.1579 145.174ZM66.6679 162.34L67.1415 162.18L67.1415 162.18L66.6679 162.34ZM73.4965 170.139L73.275 170.587L73.2751 170.587L73.4965 170.139ZM83.8422 170.827L84.0024 171.3L84.0024 171.3L83.8422 170.827ZM92.3322 153.66L92.8058 153.499L92.8058 153.499L92.3322 153.66ZM79.4835 176.471V175.971H79.4834L79.4835 176.471ZM71.3157 174.55L71.0942 174.998L71.0942 174.998L71.3157 174.55ZM62.0053 163.917L61.5317 164.078L61.5317 164.078L62.0053 163.917ZM73.5802 140.513L73.7404 140.987L73.7405 140.987L73.5802 140.513ZM87.6842 141.451L87.4626 141.899L87.4627 141.899L87.6842 141.451ZM96.9949 152.083L97.4685 151.922L97.4685 151.922L96.9949 152.083ZM85.4203 175.487L85.2601 175.014L85.2601 175.014L85.4203 175.487ZM79.4891 143.959C77.9986 143.959 76.485 144.197 74.9977 144.7L75.3181 145.647C76.7005 145.18 78.1058 144.959 79.4891 144.959V143.959ZM74.9977 144.7C67.6605 147.182 63.7112 155.167 66.1943 162.5L67.1415 162.18C64.8357 155.37 68.5038 147.952 75.3181 145.647L74.9977 144.7ZM66.1943 162.5C67.3964 166.053 69.9121 168.925 73.275 170.587L73.718 169.691C70.5928 168.146 68.2585 165.481 67.1415 162.18L66.1943 162.5ZM73.2751 170.587C76.6383 172.248 80.4491 172.502 84.0024 171.3L83.682 170.353C80.3799 171.47 76.8436 171.234 73.7179 169.691L73.2751 170.587ZM84.0024 171.3C91.3393 168.819 95.2885 160.834 92.8058 153.499L91.8586 153.82C94.1641 160.631 90.4959 168.049 83.682 170.353L84.0024 171.3ZM92.8058 153.499C90.8253 147.651 85.3461 143.959 79.4891 143.959V144.959C84.9317 144.959 90.0201 148.391 91.8586 153.82L92.8058 153.499ZM79.4834 175.971C76.7604 175.971 74.0521 175.344 71.5371 174.101L71.0942 174.998C73.7461 176.308 76.6059 176.971 79.4835 176.971L79.4834 175.971ZM71.5372 174.101C67.2332 171.975 64.0177 168.302 62.4789 163.757L61.5317 164.078C63.1556 168.874 66.5524 172.754 71.0942 174.998L71.5372 174.101ZM62.4789 163.757C59.3035 154.377 64.3551 144.161 73.7404 140.987L73.42 140.04C63.5117 143.391 58.1791 154.174 61.5317 164.078L62.4789 163.757ZM73.7405 140.987C78.2879 139.449 83.16 139.772 87.4626 141.899L87.9058 141.003C83.3653 138.758 78.2185 138.416 73.42 140.04L73.7405 140.987ZM87.4627 141.899C91.767 144.026 94.9822 147.698 96.5213 152.243L97.4685 151.922C95.8443 147.126 92.4477 143.247 87.9057 141.003L87.4627 141.899ZM96.5213 152.243C99.6964 161.624 94.6447 171.84 85.2601 175.014L85.5804 175.961C95.4882 172.61 100.821 161.827 97.4685 151.922L96.5213 152.243ZM85.2601 175.014C83.3687 175.653 81.4213 175.971 79.4835 175.971V176.971C81.5308 176.971 83.5864 176.635 85.5805 175.961L85.2601 175.014Z" fill="black"/>
<path fill-rule="evenodd" clip-rule="evenodd" d="M126.533 133.164C123.673 124.712 128.206 115.541 136.659 112.68C145.112 109.82 154.283 114.354 157.143 122.806C160.003 131.259 155.47 140.43 147.017 143.29C138.565 146.151 129.393 141.617 126.533 133.164Z" fill="#FFFF7F"/>
<path fill-rule="evenodd" clip-rule="evenodd" d="M139.545 112.128C138.084 112.128 136.617 112.367 135.192 112.85C128.118 115.242 124.31 122.943 126.704 130.016C127.863 133.443 130.288 136.213 133.531 137.816C136.773 139.418 140.446 139.664 143.874 138.503C150.948 136.11 154.757 128.408 152.363 121.336C151.203 117.91 148.779 115.14 145.535 113.537C143.64 112.601 141.599 112.128 139.545 112.128ZM139.517 144.147C136.717 144.148 133.934 143.503 131.35 142.226C126.929 140.041 123.624 136.264 122.042 131.594C120.462 126.923 120.795 121.916 122.98 117.495C125.166 113.074 128.942 109.77 133.615 108.189C138.287 106.609 143.295 106.943 147.716 109.127C152.138 111.312 155.443 115.088 157.025 119.759C160.287 129.401 155.096 139.901 145.452 143.164C143.51 143.821 141.509 144.147 139.517 144.147Z" fill="black"/>
<path d="M135.192 112.85L135.352 113.323L135.352 113.323L135.192 112.85ZM126.704 130.016L127.178 129.856L127.178 129.856L126.704 130.016ZM133.531 137.816L133.31 138.264H133.31L133.531 137.816ZM143.874 138.503L143.714 138.029L143.714 138.029L143.874 138.503ZM152.363 121.336L152.836 121.176V121.176L152.363 121.336ZM145.535 113.537L145.757 113.089L145.757 113.089L145.535 113.537ZM139.517 144.147V143.647H139.516L139.517 144.147ZM131.35 142.226L131.129 142.675L131.129 142.675L131.35 142.226ZM122.042 131.594L121.569 131.754L121.569 131.754L122.042 131.594ZM122.98 117.495L122.532 117.274L122.532 117.274L122.98 117.495ZM133.615 108.189L133.454 107.715L133.454 107.715L133.615 108.189ZM147.716 109.127L147.937 108.678L147.937 108.678L147.716 109.127ZM157.025 119.759L157.498 119.599L157.498 119.599L157.025 119.759ZM145.452 143.164L145.291 142.69L145.291 142.69L145.452 143.164ZM139.545 111.628C138.029 111.628 136.508 111.876 135.032 112.376L135.352 113.323C136.726 112.858 138.139 112.628 139.545 112.628V111.628ZM135.032 112.376C127.696 114.857 123.748 122.842 126.23 130.177L127.178 129.856C124.872 123.045 128.539 115.627 135.352 113.323L135.032 112.376ZM126.23 130.177C127.432 133.729 129.948 136.602 133.31 138.264L133.753 137.367C130.628 135.823 128.294 133.157 127.178 129.856L126.23 130.177ZM133.31 138.264C136.671 139.925 140.48 140.18 144.035 138.977L143.714 138.029C140.411 139.147 136.876 138.911 133.753 137.367L133.31 138.264ZM144.034 138.977C151.37 136.495 155.319 128.51 152.836 121.176L151.889 121.497C154.194 128.307 150.527 135.724 143.714 138.029L144.034 138.977ZM152.836 121.176C151.634 117.624 149.119 114.751 145.757 113.089L145.314 113.986C148.438 115.53 150.772 118.196 151.889 121.497L152.836 121.176ZM145.757 113.089C143.793 112.119 141.676 111.628 139.545 111.628V112.628C141.522 112.628 143.487 113.083 145.314 113.986L145.757 113.089ZM139.516 143.647C136.794 143.648 134.087 143.02 131.572 141.778L131.129 142.675C133.781 143.985 136.64 144.648 139.517 144.647L139.516 143.647ZM131.572 141.778C127.269 139.651 124.055 135.979 122.516 131.433L121.569 131.754C123.193 136.55 126.588 140.43 131.129 142.675L131.572 141.778ZM122.516 131.433C120.978 126.888 121.302 122.019 123.428 117.717L122.532 117.274C120.288 121.813 119.946 126.957 121.569 131.754L122.516 131.433ZM123.428 117.717C125.556 113.414 129.228 110.201 133.775 108.662L133.454 107.715C128.656 109.338 124.777 112.733 122.532 117.274L123.428 117.717ZM133.775 108.662C138.321 107.125 143.192 107.45 147.494 109.575L147.937 108.678C143.398 106.436 138.252 106.092 133.454 107.715L133.775 108.662ZM147.494 109.575C151.798 111.701 155.012 115.374 156.551 119.919L157.498 119.599C155.874 114.802 152.478 110.922 147.937 108.678L147.494 109.575ZM156.551 119.919C159.725 129.3 154.675 139.516 145.291 142.69L145.612 143.637C155.518 140.286 160.85 129.503 157.498 119.599L156.551 119.919ZM145.291 142.69C143.401 143.33 141.454 143.647 139.517 143.647V144.647C141.563 144.647 143.619 144.312 145.612 143.637L145.291 142.69Z" fill="black"/>
<path fill-rule="evenodd" clip-rule="evenodd" d="M1.85693 54.6641C-1.00341 46.2115 3.53015 37.0405 11.9831 34.1805C20.4357 31.3201 29.6064 35.8536 32.4668 44.3066C35.3268 52.7592 30.7932 61.9299 22.3406 64.7903C13.888 67.6503 4.71693 63.1168 1.85693 54.6641Z" fill="#BF7FFF"/>
<path fill-rule="evenodd" clip-rule="evenodd" d="M19.4597 38.2537C18.0232 38.2537 16.5637 38.4836 15.1285 38.9693C8.05309 41.363 4.24401 49.0655 6.63847 56.1393C9.03226 63.2121 16.7348 67.0209 23.8128 64.6276C30.8883 62.2342 34.697 54.531 32.3029 47.4569C30.3937 41.8171 25.1096 38.2537 19.4597 38.2537ZM19.4864 70.2647C11.7825 70.2647 4.57823 65.4061 1.97585 57.7168C-1.28817 48.0727 3.90397 37.571 13.5509 34.3074C18.2239 32.7263 23.2333 33.0592 27.6549 35.2452C32.0781 37.4312 35.384 41.2076 36.9653 45.8794C40.2293 55.5242 35.0372 66.0262 25.391 69.2891C23.4359 69.9507 21.4447 70.2647 19.4864 70.2647Z" fill="black"/>
<path d="M15.1285 38.9693L15.2887 39.4429L15.2888 39.4429L15.1285 38.9693ZM6.63847 56.1393L7.11208 55.979L7.11207 55.979L6.63847 56.1393ZM23.8128 64.6276L23.973 65.1012L23.9731 65.1012L23.8128 64.6276ZM32.3029 47.4569L32.7765 47.2966L32.7765 47.2966L32.3029 47.4569ZM1.97585 57.7168L2.44946 57.5565L2.44946 57.5565L1.97585 57.7168ZM13.5509 34.3074L13.7111 34.7811L13.7111 34.7811L13.5509 34.3074ZM27.6549 35.2452L27.4333 35.6935L27.4333 35.6935L27.6549 35.2452ZM36.9653 45.8794L37.4389 45.7192L37.4389 45.7191L36.9653 45.8794ZM25.391 69.2891L25.2307 68.8155L25.2307 68.8155L25.391 69.2891ZM19.4597 37.7537C17.9696 37.7537 16.4559 37.9923 14.9682 38.4956L15.2888 39.4429C16.6715 38.975 18.0768 38.7537 19.4597 38.7537V37.7537ZM14.9683 38.4956C7.63136 40.9778 3.68182 48.9641 6.16487 56.2996L7.11207 55.979C4.80621 49.1669 8.47481 41.7481 15.2887 39.4429L14.9683 38.4956ZM6.16486 56.2996C8.64719 63.634 16.6335 67.583 23.973 65.1012L23.6527 64.1539C16.8361 66.4589 9.41733 62.7902 7.11208 55.979L6.16486 56.2996ZM23.9731 65.1012C31.31 62.6193 35.2592 54.6324 32.7765 47.2966L31.8293 47.6172C34.1348 54.4296 30.4665 61.849 23.6526 64.1539L23.9731 65.1012ZM32.7765 47.2966C30.7963 41.4471 25.3168 37.7537 19.4597 37.7537V38.7537C24.9023 38.7537 29.9911 42.1871 31.8293 47.6172L32.7765 47.2966ZM19.4864 69.7647C11.9898 69.7647 4.98087 65.0361 2.44946 57.5565L1.50224 57.8771C4.1756 65.7761 11.5753 70.7647 19.4864 70.7647V69.7647ZM2.44946 57.5565C-0.725996 48.1741 4.32574 37.9562 13.7111 34.7811L13.3906 33.8338C3.48221 37.1859 -1.85033 47.9714 1.50224 57.8771L2.44946 57.5565ZM13.7111 34.7811C18.2585 33.2424 23.1306 33.5662 27.4333 35.6935L27.8765 34.797C23.336 32.5522 18.1892 32.2102 13.3906 33.8338L13.7111 34.7811ZM27.4333 35.6935C31.7377 37.8207 34.9529 41.4936 36.4917 46.0397L37.4389 45.7191C35.815 40.9217 32.4185 37.0417 27.8764 34.797L27.4333 35.6935ZM36.4917 46.0397C39.6672 55.4228 34.6154 65.641 25.2307 68.8155L25.5512 69.7628C35.459 66.4113 40.7915 55.6255 37.4389 45.7192L36.4917 46.0397ZM25.2307 68.8155C23.3281 69.4593 21.391 69.7647 19.4864 69.7647V70.7647C21.4984 70.7647 23.5438 70.442 25.5512 69.7627L25.2307 68.8155Z" fill="black"/>
</svg>
